<?xml version="1.0" encoding="utf-8"?>
<!-- Generator: Adobe Illustrator 24.3.0, SVG Export Plug-In . SVG Version: 6.00 Build 0)  -->
<svg version="1.1" id="Layer_1" xmlns="http://www.w3.org/2000/svg" xmlns:xlink="http://www.w3.org/1999/xlink" x="0px" y="0px"
	 viewBox="0 0 658.36 651.03" style="enable-background:new 0 0 658.36 651.03;" xml:space="preserve">
<g>
	<g>
		<g>
			<path style="fill:#136BE3;" d="M18.49,395.1l20.98-4.76l2.13,9.41c0.55,2.42,0.49,4.39-0.19,5.9c-0.68,1.52-1.85,2.47-3.53,2.85
				c-1.14,0.26-2.16,0.22-3.05-0.11c-0.9-0.33-1.65-0.88-2.27-1.65c-0.61-0.76-1.03-1.65-1.26-2.65l1.02,0.34
				c0.28,1.2,0.31,2.31,0.09,3.32c-0.21,1.01-0.66,1.88-1.35,2.61c-0.69,0.72-1.63,1.22-2.83,1.49c-1.8,0.41-3.35,0.05-4.64-1.08
				c-1.3-1.12-2.24-3.02-2.85-5.67L18.49,395.1z M21.59,397.54l1.56,6.89c0.38,1.66,0.94,2.86,1.7,3.62
				c0.76,0.75,1.74,0.99,2.94,0.72c1.22-0.28,2.01-0.92,2.37-1.92c0.36-1.01,0.35-2.34-0.02-4l-1.62-7.17l2.43-0.55l1.45,6.41
				c0.35,1.52,0.89,2.64,1.64,3.35c0.75,0.71,1.68,0.94,2.8,0.69c1.12-0.25,1.86-0.86,2.23-1.83c0.37-0.97,0.38-2.21,0.04-3.73
				l-1.4-6.14L21.59,397.54z"/>
			<path style="fill:#136BE3;" d="M29.55,427.23l3.91,11.92l-2.54,0.83l-4.87-14.84l20.44-6.7l4.73,14.43l-2.54,0.83l-3.77-11.51
				L29.55,427.23z M38.54,423.99l3.45,10.51l-2.48,0.81l-3.45-10.51L38.54,423.99z"/>
			<path style="fill:#136BE3;" d="M39.04,460.76c-0.65-1.5-1-3-1.06-4.48s0.18-2.89,0.68-4.22c0.51-1.33,1.26-2.52,2.26-3.57
				c0.99-1.06,2.22-1.9,3.69-2.54c1.47-0.64,2.92-0.96,4.37-0.96c1.45,0,2.84,0.27,4.15,0.81c1.32,0.54,2.5,1.34,3.55,2.4
				c1.05,1.05,1.9,2.33,2.55,3.84c0.66,1.52,1.01,3.04,1.05,4.55c0.04,1.51-0.25,2.94-0.88,4.28l-2.57-1.06
				c0.46-1.09,0.69-2.2,0.66-3.3c-0.02-1.11-0.27-2.2-0.73-3.27c-0.48-1.11-1.12-2.06-1.9-2.84c-0.79-0.79-1.67-1.38-2.65-1.78
				c-0.98-0.4-2.02-0.6-3.11-0.58c-1.1,0.02-2.19,0.26-3.28,0.74c-1.09,0.47-2.02,1.1-2.78,1.89c-0.77,0.79-1.33,1.68-1.71,2.67
				c-0.38,0.99-0.55,2.04-0.51,3.15c0.03,1.11,0.29,2.22,0.77,3.33c0.47,1.07,1.1,1.99,1.89,2.77c0.8,0.77,1.76,1.36,2.89,1.76
				l-0.98,2.6c-1.41-0.46-2.65-1.22-3.74-2.28C40.59,463.6,39.71,462.3,39.04,460.76z"/>
			<path style="fill:#136BE3;" d="M46.2,475.81l23.55-1.82l1.47,2.67l-14.15,18.93l-1.55-2.83l13.16-17.16l0.59,1.08l-21.54,1.91
				L46.2,475.81z M52.91,476.86l2.56-0.46l5.83,10.61l-1.73,1.96L52.91,476.86z"/>
			<path style="fill:#136BE3;" d="M67.49,511.98c-1.6-2.33-2.18-4.63-1.76-6.88c0.43-2.25,1.92-4.25,4.49-6.01l10.1-6.9l1.73,2.54
				l-10,6.83c-1.98,1.35-3.13,2.78-3.45,4.27c-0.32,1.49,0.07,3.04,1.15,4.63c1.1,1.61,2.4,2.54,3.91,2.78
				c1.51,0.25,3.25-0.3,5.23-1.66l10-6.83l1.68,2.46l-10.1,6.9c-2.57,1.76-4.98,2.43-7.22,2.01
				C71.02,515.71,69.09,514.33,67.49,511.98z"/>
			<path style="fill:#136BE3;" d="M85.18,535.5c-1.05-1.26-1.85-2.63-2.42-4.1c-0.57-1.47-0.82-2.8-0.75-3.97l2.57-0.65
				c-0.03,1.09,0.18,2.27,0.63,3.55c0.45,1.28,1.11,2.45,1.98,3.51c0.8,0.96,1.55,1.65,2.27,2.07c0.72,0.42,1.39,0.61,2.01,0.57
				c0.62-0.04,1.18-0.26,1.67-0.66c0.57-0.47,0.87-1.04,0.91-1.69c0.04-0.66-0.08-1.37-0.36-2.14c-0.28-0.77-0.63-1.57-1.06-2.41
				c-0.43-0.84-0.84-1.71-1.22-2.6c-0.38-0.9-0.65-1.77-0.81-2.64c-0.16-0.87-0.11-1.71,0.15-2.54c0.26-0.83,0.83-1.61,1.72-2.34
				c0.85-0.71,1.82-1.13,2.91-1.27c1.09-0.15,2.24,0.07,3.45,0.65c1.21,0.58,2.42,1.6,3.62,3.05c0.8,0.96,1.46,2.02,1.99,3.18
				c0.53,1.16,0.85,2.28,0.95,3.36l-2.54,0.79c-0.12-1.1-0.39-2.14-0.83-3.1c-0.44-0.97-0.97-1.82-1.58-2.56
				c-0.77-0.93-1.53-1.6-2.26-2c-0.74-0.4-1.41-0.58-2.04-0.53c-0.63,0.05-1.18,0.28-1.67,0.68c-0.58,0.48-0.9,1.05-0.94,1.71
				c-0.04,0.66,0.08,1.37,0.37,2.13c0.28,0.76,0.64,1.57,1.06,2.41c0.43,0.85,0.83,1.71,1.22,2.6c0.39,0.89,0.66,1.76,0.82,2.63
				c0.16,0.87,0.11,1.71-0.14,2.53c-0.25,0.82-0.81,1.59-1.68,2.31c-0.84,0.69-1.81,1.11-2.9,1.24c-1.1,0.14-2.26-0.09-3.48-0.69
				C87.6,537.98,86.39,536.95,85.18,535.5z"/>
			<path style="fill:#136BE3;" d="M102.93,551.07l8.79,8.94l-1.91,1.88l-10.95-11.13l15.34-15.09l10.65,10.82l-1.91,1.87l-8.49-8.63
				L102.93,551.07z M109.55,544.16l7.76,7.89l-1.86,1.83l-7.76-7.89L109.55,544.16z"/>
			<path style="fill:#136BE3;" d="M135.18,583.74l5.03-6.52l-0.61,1.94l1.96-17.67l2.6,2.01l-1.68,14.9l-1.41-1.09l14.01-5.37
				l2.41,1.86l-16.58,6.38l1.7-1.09l-5.04,6.52L135.18,583.74z"/>
			<path style="fill:#136BE3;" d="M160.57,601.91c-1.38-0.88-2.52-1.92-3.41-3.14c-0.89-1.22-1.5-2.52-1.84-3.91
				c-0.33-1.39-0.39-2.8-0.16-4.23c0.23-1.43,0.76-2.81,1.61-4.15c0.85-1.33,1.87-2.41,3.06-3.23c1.2-0.82,2.5-1.37,3.89-1.66
				c1.4-0.29,2.83-0.3,4.31-0.02c1.47,0.28,2.91,0.86,4.31,1.75c1.39,0.88,2.52,1.91,3.39,3.11c0.88,1.2,1.49,2.5,1.83,3.89
				c0.34,1.39,0.4,2.8,0.16,4.23c-0.24,1.43-0.78,2.82-1.64,4.17c-0.86,1.35-1.88,2.44-3.07,3.26c-1.19,0.82-2.49,1.38-3.89,1.66
				c-1.41,0.29-2.84,0.29-4.3,0.01C163.38,603.36,161.96,602.78,160.57,601.91z M162.03,599.59c1.01,0.64,2.05,1.05,3.12,1.25
				c1.08,0.2,2.13,0.18,3.16-0.05c1.03-0.23,1.99-0.66,2.89-1.28c0.89-0.62,1.66-1.44,2.29-2.44c0.64-1,1.05-2.04,1.23-3.12
				c0.19-1.07,0.16-2.12-0.07-3.16c-0.23-1.03-0.67-1.99-1.3-2.88c-0.64-0.89-1.46-1.65-2.46-2.29c-1.02-0.65-2.07-1.07-3.15-1.26
				c-1.08-0.2-2.13-0.18-3.17,0.05c-1.04,0.23-2.01,0.65-2.9,1.27c-0.89,0.62-1.66,1.44-2.29,2.44c-0.64,1-1.05,2.04-1.23,3.12
				c-0.19,1.07-0.16,2.13,0.08,3.17c0.24,1.04,0.68,2,1.32,2.89C160.18,598.18,161.01,598.95,162.03,599.59z"/>
			<path style="fill:#136BE3;" d="M189.23,618.04c-2.53-1.26-4.16-2.97-4.89-5.14c-0.73-2.17-0.4-4.65,0.98-7.44l5.44-10.96
				l2.75,1.37l-5.38,10.85c-1.07,2.15-1.38,3.95-0.92,5.41c0.45,1.46,1.54,2.62,3.27,3.48c1.74,0.87,3.33,1.04,4.77,0.52
				c1.44-0.52,2.69-1.86,3.75-4l5.39-10.85l2.67,1.33l-5.44,10.96c-1.39,2.79-3.16,4.55-5.32,5.29
				C194.14,619.57,191.79,619.31,189.23,618.04z"/>
			<path style="fill:#136BE3;" d="M210.48,627.47l7.62-20.12l7.85,2.97c1.76,0.67,3.16,1.52,4.19,2.54c1.03,1.03,1.69,2.2,1.96,3.5
				c0.27,1.31,0.13,2.69-0.42,4.15c-0.55,1.46-1.36,2.58-2.43,3.37c-1.07,0.79-2.33,1.23-3.78,1.31c-1.46,0.08-3.07-0.21-4.83-0.88
				l-6.27-2.38l1.79-0.83l-2.82,7.44L210.48,627.47z M216.07,621.41l-0.76-1.9l6.18,2.34c1.84,0.7,3.38,0.83,4.63,0.39
				c1.25-0.44,2.15-1.37,2.69-2.81c0.55-1.44,0.49-2.73-0.16-3.87c-0.65-1.15-1.9-2.07-3.73-2.76l-6.18-2.34l1.84-0.95
				L216.07,621.41z M223.93,632.57l-2.35-9.24l3.08,1.17l2.41,9.26L223.93,632.57z"/>
			<path style="fill:#136BE3;" d="M256.84,642.26l-3-0.68l4.74-20.98l14.81,3.35l-0.59,2.61L261,623.88L256.84,642.26z
				 M259.04,631.13l10.82,2.45l-0.58,2.58l-10.82-2.45L259.04,631.13z"/>
			<path style="fill:#136BE3;" d="M280.35,646.9l3.27-21.26l3.04,0.47l-3.28,21.26L280.35,646.9z"/>
			<path style="fill:#136BE3;" d="M297.3,649.26l1.61-21.46l2.51,0.19l12.87,18.69l-1.32-0.1l1.33-17.62l3.06,0.23l-1.61,21.46
				l-2.51-0.19l-12.87-18.69l1.32,0.1l-1.32,17.62L297.3,649.26z"/>
			<path style="fill:#136BE3;" d="M326.78,651.03l9.25-21.73l3.04-0.07l10.26,21.29l-3.23,0.07L336.96,631l1.23-0.03l-8.24,19.99
				L326.78,651.03z M330.81,645.55l0.77-2.48l12.11-0.28l0.95,2.44L330.81,645.55z"/>
			<path style="fill:#136BE3;" d="M360.22,649.55l-2.37-21.38l3.05-0.34l2.08,18.73l11.58-1.28l0.3,2.66L360.22,649.55z"/>
			<path style="fill:#136BE3;" d="M406.27,641.96l-12.63-18.84l3.06-0.84l11.63,17.4l-1.54,0.42l1.36-20.96l2.73-0.75l11.72,17.37
				l-1.48,0.41l1.21-20.92l2.82-0.77l-1.25,22.65l-3.11,0.85l-10.92-16.09l0.8-0.22l-1.21,19.42L406.27,641.96z"/>
			<path style="fill:#136BE3;" d="M441.51,631.03l-7.59-20.13l2.88-1.08l7.59,20.13L441.51,631.03z"/>
			<path style="fill:#136BE3;" d="M463.13,622.33c-1.49,0.68-3.02,1.11-4.59,1.27c-1.57,0.17-2.91,0.07-4.03-0.3l0.03-2.65
				c1.04,0.31,2.24,0.42,3.59,0.32c1.35-0.1,2.65-0.44,3.9-1.01c1.14-0.52,2-1.07,2.59-1.66c0.59-0.59,0.95-1.18,1.07-1.79
				c0.13-0.61,0.05-1.2-0.21-1.78c-0.31-0.67-0.77-1.11-1.4-1.32c-0.63-0.21-1.35-0.28-2.16-0.21c-0.81,0.07-1.68,0.2-2.61,0.4
				c-0.92,0.2-1.87,0.37-2.83,0.5c-0.96,0.14-1.88,0.17-2.76,0.1c-0.88-0.07-1.69-0.34-2.42-0.8c-0.73-0.46-1.34-1.22-1.81-2.26
				c-0.46-1.01-0.62-2.05-0.48-3.15c0.15-1.09,0.65-2.15,1.53-3.17c0.87-1.02,2.17-1.92,3.88-2.71c1.14-0.52,2.33-0.89,3.58-1.1
				c1.25-0.21,2.42-0.23,3.49-0.05l0.1,2.66c-1.09-0.18-2.16-0.18-3.21,0c-1.05,0.17-2.01,0.46-2.88,0.86
				c-1.1,0.5-1.94,1.06-2.52,1.66c-0.58,0.6-0.93,1.21-1.04,1.83c-0.11,0.62-0.04,1.21,0.23,1.79c0.32,0.69,0.79,1.14,1.41,1.35
				c0.63,0.21,1.34,0.28,2.15,0.2c0.81-0.08,1.68-0.21,2.61-0.4c0.93-0.19,1.87-0.36,2.83-0.5c0.96-0.15,1.88-0.18,2.75-0.11
				c0.88,0.07,1.68,0.34,2.41,0.79c0.73,0.46,1.33,1.2,1.79,2.22c0.45,0.99,0.6,2.03,0.45,3.12c-0.15,1.1-0.67,2.16-1.57,3.19
				C466.15,620.64,464.85,621.55,463.13,622.33z"/>
			<path style="fill:#136BE3;" d="M484.2,611.51l-2.66,1.54l-10.76-18.63l2.66-1.54L484.2,611.51z M490.34,596.89l-11.21,6.47
				l-1.34-2.32l11.21-6.47L490.34,596.89z M484.14,586.7l2.66-1.54l10.76,18.63l-2.66,1.54L484.14,586.7z"/>
			<path style="fill:#136BE3;" d="M510.48,592.01l10.21-7.28l1.55,2.18l-12.71,9.07l-12.5-17.51l12.36-8.82l1.55,2.18l-9.86,7.03
				L510.48,592.01z M504.7,584.38l9-6.43l1.52,2.13l-9.01,6.43L504.7,584.38z"/>
			<path style="fill:#136BE3;" d="M537.06,575.18c-1.25,1.06-2.6,1.89-4.07,2.48c-1.46,0.59-2.78,0.86-3.96,0.81l-0.69-2.56
				c1.09,0.02,2.27-0.21,3.54-0.68c1.27-0.46,2.43-1.14,3.47-2.03c0.95-0.81,1.63-1.58,2.04-2.3c0.41-0.72,0.59-1.4,0.54-2.02
				c-0.04-0.62-0.27-1.17-0.69-1.66c-0.48-0.56-1.05-0.86-1.71-0.89c-0.66-0.03-1.37,0.1-2.13,0.39c-0.76,0.29-1.56,0.65-2.4,1.09
				c-0.84,0.44-1.7,0.86-2.59,1.25c-0.89,0.39-1.77,0.68-2.63,0.85c-0.86,0.17-1.71,0.13-2.54-0.12c-0.83-0.25-1.62-0.81-2.36-1.68
				c-0.72-0.84-1.16-1.81-1.32-2.9c-0.16-1.09,0.04-2.24,0.61-3.46c0.56-1.22,1.56-2.44,3-3.66c0.95-0.81,2-1.49,3.15-2.04
				c1.15-0.55,2.26-0.88,3.35-1l0.82,2.53c-1.1,0.13-2.13,0.42-3.09,0.88c-0.96,0.45-1.81,0.99-2.54,1.62
				c-0.92,0.78-1.58,1.54-1.97,2.28c-0.4,0.74-0.56,1.42-0.5,2.04c0.06,0.62,0.3,1.18,0.71,1.66c0.49,0.58,1.07,0.88,1.73,0.91
				c0.66,0.03,1.37-0.1,2.12-0.4c0.76-0.3,1.56-0.66,2.4-1.09c0.84-0.43,1.7-0.85,2.59-1.25c0.88-0.4,1.76-0.69,2.62-0.86
				c0.86-0.17,1.71-0.14,2.53,0.11c0.82,0.24,1.6,0.79,2.33,1.65c0.7,0.83,1.13,1.79,1.28,2.88c0.15,1.1-0.06,2.26-0.64,3.49
				C539.5,572.73,538.5,573.96,537.06,575.18z"/>
			<path style="fill:#136BE3;" d="M563.26,550.11l-16.23-14.13l1.65-1.9l18.6,3.4l-0.89,1.02l-6.01-17.86l1.66-1.9l16.25,14.1
				l-1.94,2.22l-12.75-11.06l0.47-0.53l5.19,15.76l-0.93,1.07l-16.37-2.92l0.51-0.58l12.73,11.08L563.26,550.11z"/>
			<path style="fill:#136BE3;" d="M585.12,524.1l-12.04-20.32l1.75-2.49l23.23,4.33l-1.85,2.64L575,504.04l0.71-1.01l11.23,18.47
				L585.12,524.1z M583.1,517.61l-1.54-2.09l6.94-9.92l2.53,0.68L583.1,517.61z"/>
			<path style="fill:#136BE3;" d="M605.3,493.5l-16.29-9.46l-3.7,6.38l-2.31-1.34l8.93-15.39l2.31,1.34l-3.7,6.38l16.29,9.46
				L605.3,493.5z"/>
			<path style="fill:#136BE3;" d="M617.51,470.62l-17.01-8.1l-3.17,6.66l-2.41-1.15l7.65-16.07l2.41,1.15l-3.17,6.66l17.01,8.1
				L617.51,470.62z"/>
			<path style="fill:#136BE3;" d="M624.81,447.19l4.4-11.74l2.51,0.94l-5.49,14.62l-20.14-7.56l5.33-14.22l2.5,0.94l-4.25,11.34
				L624.81,447.19z M615.76,444.1l3.88-10.36l2.45,0.92l-3.88,10.36L615.76,444.1z"/>
			<path style="fill:#136BE3;" d="M635.62,424.22l-20.76-5.66l2.21-8.09c0.5-1.82,1.21-3.29,2.13-4.42c0.92-1.13,2.02-1.89,3.3-2.29
				c1.28-0.4,2.67-0.39,4.17,0.02c1.5,0.41,2.7,1.11,3.59,2.09c0.89,0.99,1.45,2.2,1.67,3.64c0.23,1.44,0.09,3.07-0.41,4.89
				l-1.76,6.46l-1-1.71l7.68,2.09L635.62,424.22z M629.04,419.24l-1.82,0.94l1.74-6.38c0.52-1.9,0.5-3.45-0.06-4.65
				c-0.56-1.2-1.57-2.01-3.05-2.41c-1.48-0.4-2.76-0.23-3.84,0.53c-1.08,0.76-1.88,2.09-2.39,3.98l-1.74,6.38l-1.12-1.74
				L629.04,419.24z M639.4,410.34l-8.97,3.22l0.87-3.17l8.99-3.28L639.4,410.34z"/>
			<path style="fill:#136BE3;" d="M642.97,395.02c-0.11,0.56-0.41,1.01-0.88,1.33c-0.47,0.33-1.01,0.43-1.61,0.31
				c-0.61-0.12-1.06-0.42-1.36-0.9c-0.3-0.48-0.4-1-0.29-1.56c0.11-0.54,0.4-0.97,0.85-1.29c0.46-0.32,0.99-0.41,1.59-0.3
				c0.61,0.12,1.06,0.42,1.38,0.89C642.97,393.97,643.07,394.48,642.97,395.02z"/>
		</g>
	</g>
	<g>
		<g>
			<path style="fill:#136BE3;" d="M51.1,296.13L0,286.49l2.23-11.82l41.46,7.82l4.83-25.62l9.64,1.82L51.1,296.13z"/>
			<path style="fill:#136BE3;" d="M60.82,223.02l11.27-25.96l8.86,3.85l-16.04,36.93l-47.69-20.71l15.65-36.04l8.86,3.85L30.85,210
				L60.82,223.02z M40.85,215.32l9.97-22.96l8.59,3.73l-9.97,22.96L40.85,215.32z"/>
			<path style="fill:#136BE3;" d="M109.06,160.55c-2.5,3.27-5.31,5.87-8.44,7.81c-3.13,1.94-6.43,3.19-9.91,3.74
				c-3.47,0.56-6.94,0.4-10.4-0.46c-3.45-0.86-6.74-2.48-9.85-4.85c-3.11-2.37-5.54-5.11-7.28-8.22s-2.8-6.42-3.17-9.94
				c-0.37-3.52-0.02-7.05,1.04-10.61c1.06-3.55,2.85-6.98,5.37-10.29c2.79-3.66,5.92-6.49,9.37-8.5c3.46-2,7.11-3.12,10.97-3.36
				l0.98,10.47c-2.72,0.3-5.14,1.03-7.25,2.22c-2.12,1.19-3.97,2.82-5.57,4.91c-1.53,2.01-2.61,4.08-3.25,6.21
				c-0.63,2.13-0.82,4.25-0.55,6.35c0.26,2.1,0.96,4.09,2.07,5.97c1.12,1.88,2.66,3.57,4.63,5.07c1.93,1.47,3.95,2.5,6.06,3.08
				c2.11,0.58,4.22,0.73,6.34,0.45c2.12-0.28,4.11-1,5.99-2.16c1.88-1.15,3.56-2.71,5.07-4.68c1.44-1.89,2.54-3.96,3.3-6.22
				c0.76-2.26,1.05-4.79,0.89-7.59l11.05-0.16c-0.02,3.54-0.71,7.13-2.07,10.8C113.12,154.29,111.31,157.6,109.06,160.55z
				 M108.65,147.62l-15.53-11.85l6.67-8.74l16.77,12.8L108.65,147.62z"/>
			<path style="fill:#136BE3;" d="M133.8,129.42l-13.97-55.19l9.33-7.35l50.44,26.46l-9.92,7.81l-43.34-24.3l3.73-2.94l13.41,47.87
				L133.8,129.42z M136.01,113.5l-3.14-9.15l21.01-16.55l8.22,5.16L136.01,113.5z"/>
			<path style="fill:#136BE3;" d="M219.69,74.85c-3.66,1.64-7.33,2.56-11.01,2.77c-3.68,0.21-7.16-0.28-10.46-1.46
				c-3.3-1.18-6.26-2.98-8.88-5.39c-2.62-2.41-4.73-5.4-6.33-8.97c-1.6-3.57-2.42-7.14-2.47-10.7c-0.04-3.56,0.6-6.97,1.94-10.22
				c1.34-3.26,3.3-6.18,5.88-8.77c2.58-2.59,5.73-4.72,9.43-6.38c4.11-1.84,8.15-2.79,12.11-2.86c3.96-0.06,7.69,0.78,11.18,2.52
				l-4.14,9.66c-2.46-1.12-4.89-1.7-7.29-1.74c-2.41-0.04-4.78,0.47-7.13,1.52c-2.21,0.99-4.08,2.26-5.61,3.81
				c-1.53,1.55-2.67,3.31-3.42,5.27c-0.75,1.96-1.08,4.04-1,6.22c0.08,2.19,0.63,4.41,1.64,6.67c1.01,2.26,2.31,4.15,3.88,5.67
				c1.57,1.52,3.34,2.65,5.31,3.4c1.96,0.75,4.03,1.07,6.21,0.96c2.18-0.11,4.37-0.65,6.59-1.65c2.35-1.05,4.31-2.49,5.89-4.3
				c1.58-1.82,2.75-4.04,3.53-6.66l9.96,3.35c-1.03,3.77-2.88,7.12-5.55,10.05C227.27,70.59,223.85,72.99,219.69,74.85z"/>
			<path style="fill:#136BE3;" d="M273.18,56.99l-3.87-20.89l4.03,6.66L243.93,9.53l12.56-2.32l22.55,25.51l-7.23,1.34l12-31.91
				L295.42,0l-15.57,41.56l1.3-7.64l3.87,20.89L273.18,56.99z"/>
			<path style="fill:#136BE3;" d="M363.05,52.21l9.79-51.07l11.74,2.25l-9.78,51.07L363.05,52.21z M375.87,42.57l1.96-13.77
				L407.2,7.73l13.13,2.52l-26.57,19.49l-7.91,5.75L375.87,42.57z M398,58.91l-13.9-25.73l9.34-6.91l18.35,35.28L398,58.91z"/>
			<path style="fill:#136BE3;" d="M445.51,64.96l25.74,11.78l-4.02,8.78l-36.61-16.75l21.64-47.28l35.73,16.35l-4.02,8.78
				l-24.86-11.37L445.51,64.96z M453.6,45.14l22.76,10.42l-3.89,8.51L449.7,53.65L453.6,45.14z"/>
			<path style="fill:#136BE3;" d="M503.39,98.18l22.38,17.33l-5.91,7.63l-31.83-24.65l31.84-41.11l31.07,24.06l-5.91,7.63
				L523.4,72.34L503.39,98.18z M515.78,80.72l19.8,15.33l-5.73,7.4l-19.79-15.33L515.78,80.72z"/>
			<path style="fill:#136BE3;" d="M537.19,140.26l40.56-32.54l14.08,17.56c2.91,3.63,4.83,7.23,5.76,10.8
				c0.93,3.57,0.87,6.95-0.19,10.15c-1.06,3.2-3.11,6.02-6.16,8.47c-3.01,2.42-6.19,3.79-9.54,4.13c-3.35,0.34-6.66-0.34-9.95-2.02
				c-3.29-1.68-6.38-4.34-9.29-7.97l-9.91-12.34l7.58,0.78l-15.41,12.37L537.19,140.26z M559.09,138.12l1.12-7.75l9.48,11.82
				c2.32,2.9,4.67,4.56,7.06,5c2.38,0.44,4.67-0.23,6.87-1.99c2.24-1.8,3.41-3.91,3.5-6.33c0.09-2.42-1.03-5.08-3.35-7.98
				l-9.48-11.82l7.81,0.59L559.09,138.12z"/>
			<path style="fill:#136BE3;" d="M591.14,202.29l12.09,25.59L594.5,232l-17.2-36.4l47.01-22.21l16.78,35.53l-8.73,4.12
				l-11.68-24.71L591.14,202.29z M610.1,192.35l10.7,22.63l-8.46,4l-10.7-22.63L610.1,192.35z"/>
			<path style="fill:#136BE3;" d="M602.15,255.08l50.94-10.44l4.52,22.05c0.94,4.56,1,8.64,0.2,12.24c-0.81,3.6-2.4,6.58-4.8,8.95
				c-2.4,2.36-5.51,3.94-9.34,4.72c-3.79,0.78-7.23,0.55-10.34-0.69c-3.11-1.23-5.73-3.35-7.86-6.35c-2.13-3-3.67-6.78-4.6-11.34
				l-3.18-15.5l6.24,4.18l-19.36,3.97L602.15,255.08z M608.79,287.46l15.87-16.52l2.58,12.59L611.4,300.2L608.79,287.46z
				 M622.62,263.17l4.45-6.37l3.05,14.84c0.75,3.64,2.09,6.19,4.04,7.67c1.94,1.47,4.3,1.92,7.06,1.36
				c2.81-0.58,4.81-1.92,5.99-4.03c1.19-2.11,1.41-4.99,0.66-8.63l-3.05-14.84l6.68,4.09L622.62,263.17z"/>
		</g>
	</g>
	<g>
		<g>
			<g>
				<linearGradient id="SVGID_1_" gradientUnits="userSpaceOnUse" x1="372.8105" y1="248.5493" x2="289.987" y2="378.9022">
					<stop  offset="0" style="stop-color:#4CBAFC"/>
					<stop  offset="1" style="stop-color:#136BE3"/>
				</linearGradient>
				<path style="fill:url(#SVGID_1_);" d="M455.08,208.25c-31.81-31.82-75.85-51.53-124.39-51.53
					c-48.55-0.01-92.59,19.7-124.39,51.53c-31.82,31.8-51.53,75.84-51.52,124.39c0,9.39,0.75,18.6,2.17,27.6l0.01,0h-0.02
					c1.01,6.35,2.37,12.56,4.03,18.67h19.41h54.61l-18.67-18.67h-40.4c-1.5-8.73-2.48-18.5-2.48-27.6
					c0.01-43.45,17.59-82.71,46.06-111.19c28.49-28.47,67.74-46.05,111.19-46.06c43.45,0.01,82.71,17.59,111.19,46.06
					c28.47,28.49,46.05,67.74,46.06,111.19h-0.01c0,5.71-0.32,11.36-0.93,16.93h18.77c0.56-5.57,0.83-11.23,0.83-16.93h0.01
					C506.6,284.09,486.89,240.06,455.08,208.25z"/>
				<linearGradient id="SVGID_2_" gradientUnits="userSpaceOnUse" x1="398.3772" y1="264.7939" x2="315.5538" y2="395.1469">
					<stop  offset="0" style="stop-color:#4CBAFC"/>
					<stop  offset="1" style="stop-color:#136BE3"/>
				</linearGradient>
				<path style="fill:url(#SVGID_2_);" d="M408.64,360.25l-66.09-66.11l21.2-21.2c8.58-8.58,19.82-12.86,31.11-12.88
					c11.29,0.02,22.51,4.3,31.12,12.88c8.62,8.63,12.88,19.82,12.88,31.12s-4.26,22.47-12.88,31.09l-13.68,13.68l0.79,0.73h24.87
					l1.24-1.22c12.2-12.22,18.37-28.29,18.33-44.28c0.04-16.01-6.13-32.09-18.33-44.32c-12.22-12.22-28.33-18.35-44.34-18.35
					c-16.02,0-32.1,6.13-44.34,18.37l-21.18,21.18l-21.18-21.2c-12.22-12.22-28.31-18.35-44.32-18.35
					c-16.01,0-32.1,6.13-44.32,18.35c-12.22,12.23-18.37,28.31-18.35,44.32c-0.02,16.01,6.13,32.09,18.35,44.3l109.82,109.82
					l67.87-67.88l-13.18-13.21l-54.7,54.7l-96.62-96.62c-8.62-8.65-12.88-19.82-12.88-31.11c0-11.31,4.26-22.47,12.88-31.11
					c8.62-8.62,19.83-12.88,31.12-12.9c11.31,0.02,22.51,4.28,31.12,12.9l21.18,21.18l-54.66,54.7l13.19,13.19l54.66-54.7
					l71.58,71.58h80.07c-1.12,3.62-2.34,7.16-3.7,10.66c-7.95,20.53-20.11,38.95-35.41,54.26c-28.49,28.49-67.74,46.05-111.2,46.05
					c-43.46,0-82.73-17.56-111.2-46.05c-15.31-15.31-27.44-33.73-35.39-54.26h-19.87c8.77,25.69,23.28,48.72,42.06,67.47
					c31.81,31.81,75.83,51.52,124.39,51.52c48.55,0,92.59-19.71,124.39-51.52c18.77-18.75,33.27-41.78,42.05-67.47
					c1.21-3.51,2.29-7.06,3.29-10.66c1.64-6.12,3.01-12.32,4.02-18.66H408.64z"/>
			</g>
			<g>
				<linearGradient id="SVGID_3_" gradientUnits="userSpaceOnUse" x1="531.214" y1="349.1957" x2="448.3905" y2="479.5488">
					<stop  offset="0" style="stop-color:#4CBAFC"/>
					<stop  offset="1" style="stop-color:#136BE3"/>
				</linearGradient>
				<polygon style="fill:url(#SVGID_3_);" points="465.36,493.09 421.78,481.18 460.74,448.15 				"/>
			</g>
		</g>
	</g>
	<g>
		<g>
			<path style="fill:#4CBAFC;" d="M641.42,346.75c0,2.86-2.32,5.18-5.18,5.18c-2.86,0-5.18-2.32-5.18-5.18
				c0-2.86,2.32-5.18,5.18-5.18C639.11,341.57,641.42,343.89,641.42,346.75z"/>
			<path style="fill:#4CBAFC;" d="M27.29,346.75c0,2.86-2.32,5.18-5.18,5.18c-2.86,0-5.18-2.32-5.18-5.18
				c0-2.86,2.32-5.18,5.18-5.18C24.98,341.57,27.29,343.89,27.29,346.75z"/>
		</g>
	</g>
</g>
<g>
</g>
<g>
</g>
<g>
</g>
<g>
</g>
<g>
</g>
<g>
</g>
<g>
</g>
<g>
</g>
<g>
</g>
<g>
</g>
<g>
</g>
<g>
</g>
<g>
</g>
<g>
</g>
<g>
</g>
</svg>
